<?xml version="1.0" standalone="no"?><!DOCTYPE svg PUBLIC "-//W3C//DTD SVG 1.1//EN" "http://www.w3.org/Graphics/SVG/1.1/DTD/svg11.dtd"><svg t="1600420270127" class="icon" viewBox="0 0 1024 1024" version="1.1" xmlns="http://www.w3.org/2000/svg" p-id="14358" xmlns:xlink="http://www.w3.org/1999/xlink" width="200" height="200"><defs><style type="text/css"></style></defs><path d="M793.82032 32.44a26.24 26.24 0 0 0-15.564 23.964c0 3.452 0.68 6.964 2.112 10.368l107.824 256.172c18.308 43.5 25.144 79.716 25.144 109.984 0 47.556-16.872 80.424-32.604 103.76l-56.232 118.828-41.616-19.876 74.276-156.164c1.684-3.536 2.52-7.256 2.52-10.944a25.052 25.052 0 0 0-3.96-13.436c-4.72-7.496-12.504-11.796-21.348-11.796a25.152 25.152 0 0 0-22.38 13.596l-92.444 177.536v136.584h149.844l-0.064 1.244 0.536-1.244 107.3-253.46a208.952 208.952 0 0 0 17.12-82.804 208.896 208.896 0 0 0-21.004-91.272l-144.944-298.512a26.2 26.2 0 0 0-34.516-12.528z" fill="#E0E0E0" p-id="14359"></path><path d="M981.75232 1023.728h-374.504v-235.46l374.504-0.004v235.464z m-361.176-13.324h347.852v-208.812l-347.852 0.004v208.808z" fill="#4A555F" p-id="14360"></path><path d="M636.12432 817.136h316.76v177.716h-316.76z" fill="#FFD552" p-id="14361"></path><path d="M698.62032 978.78c-21.868 0-39.656-17.82-39.656-39.724 0-21.904 17.788-39.724 39.656-39.724s39.656 17.82 39.656 39.724c0.004 21.904-17.788 39.724-39.656 39.724z m0-66.12c-14.52 0-26.332 11.844-26.332 26.4s11.812 26.396 26.332 26.396c14.52 0 26.332-11.84 26.332-26.396s-11.812-26.4-26.332-26.4z" fill="#4A555F" p-id="14362"></path><path d="M688.68032 939.06a9.964 9.944 90 1 0 19.888 0 9.964 9.944 90 1 0-19.888 0Z" fill="#FFD552" p-id="14363"></path><path d="M981.75232 1023.728h-374.504v-235.46l374.504-0.004v235.464z m-361.176-13.324h347.852v-208.812l-347.852 0.004v208.808z" fill="#4A555F" p-id="14364"></path><path d="M636.12432 817.136h316.76v177.716h-316.76z" fill="#FFD552" p-id="14365"></path><path d="M698.62032 978.78c-21.868 0-39.656-17.82-39.656-39.724 0-21.904 17.788-39.724 39.656-39.724s39.656 17.82 39.656 39.724c0.004 21.904-17.788 39.724-39.656 39.724z m0-66.12c-14.52 0-26.332 11.844-26.332 26.4s11.812 26.396 26.332 26.396c14.52 0 26.332-11.84 26.332-26.396s-11.812-26.4-26.332-26.4zM1000.00032 330.456L855.05632 31.944c-13.356-27.496-45.604-39.204-73.44-26.636-27.972 12.628-40.544 44.704-28.624 73.02l61.376 145.816 46.436 110.36c0.152 0.36 0.284 0.708 0.432 1.068 1.588 3.804 3.088 7.56 4.5 11.276 0.328 0.86 0.632 1.708 0.952 2.564 1.34 3.612 2.612 7.188 3.784 10.72l0.396 1.176c6.864 21.004 10.716 40.644 11.548 59.468 0.028 0.652 0.036 1.3 0.056 1.948 0.088 2.624 0.096 5.228 0.064 7.824-0.02 1.324-0.032 2.652-0.084 3.972-0.06 1.652-0.184 3.292-0.292 4.936-0.044 0.632-0.084 1.268-0.136 1.9-0.416-0.732-0.756-1.492-1.208-2.208a54.652 54.652 0 0 0-46.436-25.612 54.78 54.78 0 0 0-48.728 29.592l-95.808 184.004v167.8h13.324v-164.536l94.296-181.108a41.5 41.5 0 0 1 36.912-22.424c14.344 0 27.492 7.252 35.172 19.404a41.56 41.56 0 0 1 5.752 30.016 184.684 184.684 0 0 1-3.536 10.592l-16.004 33.64-0.768 1.7-57.312 120.5 12.032 5.72 57.492-120.88 1.112-2.048c8.056-13.952 14.94-28.796 19.6-44.344 0 0 0.288-0.944 0.288-1.02 0.164-0.552 0.296-1.104 0.456-1.656 15.528-52.428 4.904-97.768-11.564-139.356a429.8 429.8 0 0 0-3.992-9.8l-24.756-58.816s-6.58-15.644-6.584-15.64l-22.792-54.156s-35.12-83.468-35.128-83.46l-18.56-44.096c-9.092-21.604 0.496-46.072 21.824-55.704 21.2-9.58 45.788-0.652 55.968 20.312l144.948 298.512a225.288 225.288 0 0 1 4.196 187.796l-107.848 249.96v20.896h13.328v-18.144l106.756-247.428A238.676 238.676 0 0 0 1000.00032 330.456z" fill="#4A555F" p-id="14366"></path><path d="M230.18032 32.44a26.24 26.24 0 0 1 15.564 23.964c0 3.452-0.68 6.964-2.112 10.368L135.80832 322.94c-18.308 43.5-25.144 79.716-25.144 109.984 0 47.556 16.872 80.424 32.604 103.76l56.232 118.828 41.616-19.876-74.276-156.164a25.404 25.404 0 0 1-2.52-10.944c0-4.652 1.324-9.26 3.96-13.436 4.72-7.496 12.504-11.796 21.348-11.796a25.152 25.152 0 0 1 22.38 13.596l92.444 177.536v136.584H154.60832l0.064 1.244-0.536-1.244-107.3-253.46a208.952 208.952 0 0 1-17.12-82.804 208.896 208.896 0 0 1 21.004-91.272l144.944-298.512a26.2 26.2 0 0 1 34.516-12.524z" fill="#E0E0E0" p-id="14367"></path><path d="M416.75232 1023.728H42.24432v-235.464l374.508 0.004v235.46z m-361.18-13.324h347.856v-208.808l-347.856-0.004v208.812z" fill="#4A555F" p-id="14368"></path><path d="M71.12032 817.136h316.76v177.716H71.12032z" fill="#FFD552" p-id="14369"></path><path d="M325.37632 978.78c-21.868 0-39.656-17.82-39.656-39.724 0-21.904 17.788-39.724 39.656-39.724s39.656 17.82 39.656 39.724c0.004 21.904-17.788 39.724-39.656 39.724z m0-66.12c-14.52 0-26.332 11.844-26.332 26.4s11.812 26.396 26.332 26.396c14.52 0 26.332-11.84 26.332-26.396s-11.812-26.4-26.332-26.4z" fill="#4A555F" p-id="14370"></path><path d="M325.37632 939.06m-9.944 0a9.944 9.944 0 1 0 19.888 0 9.944 9.944 0 1 0-19.888 0Z" fill="#FFD552" p-id="14371"></path><path d="M416.75232 1023.728H42.24432v-235.464l374.508 0.004v235.46z m-361.18-13.324h347.856v-208.808l-347.856-0.004v208.812z" fill="#4A555F" p-id="14372"></path><path d="M71.12032 817.136h316.76v177.716H71.12032z" fill="#FFD552" p-id="14373"></path><path d="M325.37632 978.78c-21.868 0-39.656-17.82-39.656-39.724 0-21.904 17.788-39.724 39.656-39.724s39.656 17.82 39.656 39.724c0.004 21.904-17.788 39.724-39.656 39.724z m0-66.12c-14.52 0-26.332 11.844-26.332 26.4s11.812 26.396 26.332 26.396c14.52 0 26.332-11.84 26.332-26.396s-11.812-26.4-26.332-26.4zM238.36032 443.128a54.788 54.788 0 0 0-48.728-29.592 54.648 54.648 0 0 0-46.436 25.612c-0.452 0.716-0.788 1.476-1.204 2.204a118.744 118.744 0 0 1-0.148-2.084c-0.1-1.568-0.22-3.136-0.276-4.712-0.052-1.372-0.068-2.752-0.088-4.128-0.028-2.52-0.02-5.052 0.064-7.604 0.02-0.716 0.032-1.428 0.06-2.144 0.84-18.776 4.68-38.364 11.524-59.308 0.148-0.456 0.308-0.92 0.46-1.376 1.148-3.464 2.396-6.972 3.712-10.516 0.332-0.892 0.648-1.776 0.992-2.672a369.76 369.76 0 0 1 4.504-11.284c0.144-0.344 0.268-0.676 0.412-1.02L215.69232 209.76l55.32-131.428c11.92-28.32-0.652-60.392-28.62-73.02-27.824-12.56-60.088-0.864-73.444 26.636L24.00432 330.456a238.588 238.588 0 0 0-4.444 198.896l106.756 247.428v18.144h13.328v-20.896l-107.848-249.96a225.272 225.272 0 0 1 4.192-187.796L180.93232 37.768C191.11232 16.8 215.69632 7.88 236.90432 17.456c21.328 9.632 30.916 34.1 21.824 55.704 0 0-18.56 44.096-18.572 44.092L194.45632 225.864l-12.212 29.008-12.18 28.948-19.156 45.512c-0.924 2.196-1.84 4.432-2.748 6.692-17.156 42.428-28.72 88.7-12.828 142.416 0.156 0.54 0.284 1.08 0.444 1.62l0.316 1.108c0.16 0.528 0.368 1.064 0.536 1.596 4.864 15.38 11.72 29.94 19.724 43.92 0.032 0.052 0.056 0.104 0.168 0.276l57.78 121.48 12.032-5.724-57.316-120.508v-0.4l-0.96-1.62-15.652-32.908a187.996 187.996 0 0 1-3.692-11 41.56 41.56 0 0 1 5.756-30.016 41.4 41.4 0 0 1 35.172-19.404c15.564 0 29.708 8.592 36.908 22.424l94.3 181.108v164.536h13.328v-167.8l-95.816-184z" fill="#4A555F" p-id="14374"></path><path d="M350.85632 360.38l255.34-255.344-26.592-26.6 94.588-0.1-0.108 94.588-29.236-29.236-255.34 255.344z" fill="#71CDE1" p-id="14375"></path><path d="M411.56832 69.748c-39.704 0-71.856 32.2-71.856 71.856 0 39.704 32.152 71.856 71.856 71.856 39.656 0 71.856-32.152 71.856-71.856 0.004-39.656-32.2-71.856-71.856-71.856z m0 103.76a31.908 31.908 0 0 1-31.904-31.904c0-17.592 14.264-31.856 31.904-31.856a31.852 31.852 0 0 1 31.852 31.856c0.004 17.592-14.26 31.904-31.852 31.904z" fill="#71CDE1" p-id="14376"></path><path d="M610.74432 269.964c-39.704 0-71.856 32.2-71.856 71.856 0 39.704 32.152 71.856 71.856 71.856 39.656 0 71.808-32.152 71.808-71.856 0-39.656-32.152-71.856-71.808-71.856z m0 103.76a31.876 31.876 0 0 1-31.904-31.904c0-17.592 14.26-31.852 31.904-31.852a31.856 31.856 0 0 1 31.856 31.852c-0.004 17.644-14.264 31.904-31.856 31.904z" fill="#71CDE1" p-id="14377"></path><path d="M389.50432 408.452L341.43232 360.38l255.34-255.344-33.232-33.244 117.324-0.124-0.136 117.328-35.88-35.884-255.344 255.34z m-29.228-48.072l29.228 29.228 255.344-255.348 22.588 22.592 0.084-71.852-71.852 0.08 19.952 19.956-255.344 255.344z" fill="#4A555F" p-id="14378"></path><path d="M411.56832 220.124c-43.296 0-78.52-35.224-78.52-78.52s35.224-78.52 78.52-78.52 78.52 35.224 78.52 78.52-35.22 78.52-78.52 78.52z m0-143.712c-35.948 0-65.196 29.248-65.196 65.196S375.62032 206.8 411.56832 206.8s65.196-29.248 65.196-65.196-29.244-65.192-65.196-65.192z m0 103.76c-21.268 0-38.568-17.3-38.568-38.568 0-21.24 17.3-38.52 38.568-38.52 21.24 0 38.516 17.28 38.516 38.52 0.004 21.264-17.276 38.568-38.516 38.568z m0-63.76c-13.92 0-25.244 11.3-25.244 25.192 0 13.92 11.324 25.24 25.244 25.24 13.888 0 25.192-11.32 25.192-25.24a25.22 25.22 0 0 0-25.192-25.192z" fill="#4A555F" p-id="14379"></path><path d="M610.74432 420.34c-43.296 0-78.52-35.224-78.52-78.52s35.224-78.52 78.52-78.52c43.268 0 78.468 35.224 78.468 78.52s-35.2 78.52-78.468 78.52z m0-143.712c-35.948 0-65.196 29.248-65.196 65.196s29.248 65.196 65.196 65.196c35.916 0 65.144-29.248 65.144-65.196s-29.224-65.196-65.144-65.196z m0 103.76c-21.268 0-38.568-17.3-38.568-38.568 0-21.24 17.3-38.516 38.568-38.516 21.24 0 38.516 17.276 38.516 38.516 0 21.264-17.276 38.568-38.516 38.568z m0-63.756c-13.92 0-25.244 11.3-25.244 25.192 0 13.92 11.32 25.24 25.244 25.24 13.888 0 25.192-11.32 25.192-25.24a25.22 25.22 0 0 0-25.192-25.192z" fill="#4A555F" p-id="14380"></path></svg>