<?xml version="1.0" standalone="no"?><!DOCTYPE svg PUBLIC "-//W3C//DTD SVG 1.1//EN" "http://www.w3.org/Graphics/SVG/1.1/DTD/svg11.dtd"><svg t="1600418732010" class="icon" viewBox="0 0 1024 1024" version="1.1" xmlns="http://www.w3.org/2000/svg" p-id="11786" xmlns:xlink="http://www.w3.org/1999/xlink" width="200" height="200"><defs><style type="text/css"></style></defs><path d="M512 512m-501.76 0a501.76 501.76 0 1 0 1003.52 0 501.76 501.76 0 1 0-1003.52 0Z" fill="#8CEEF9" p-id="11787"></path><path d="M247.3984 761.4464v-198.4512c0-14.5408 11.8784-26.4192 26.4192-26.4192 14.5408 0 26.4192 11.8784 26.4192 26.4192v198.4512h-52.8384z" fill="#FFC5B3" p-id="11788"></path><path d="M300.2368 771.6864h-53.0432c-5.7344 0-10.24-4.5056-10.24-10.24v-198.4512c0-20.2752 16.384-36.6592 36.6592-36.6592 20.2752 0 36.6592 16.384 36.6592 36.6592v198.4512c0.2048 5.5296-4.3008 10.24-10.0352 10.24z m-42.5984-20.48h32.5632v-188.2112c0-9.0112-7.3728-16.1792-16.1792-16.1792s-16.1792 7.3728-16.1792 16.1792v188.2112z" fill="#1C1D21" p-id="11789"></path><path d="M776.6016 761.4464v-198.4512c0-14.5408-11.8784-26.4192-26.4192-26.4192-14.5408 0-26.4192 11.8784-26.4192 26.4192v198.4512h52.8384z" fill="#FFC5B3" p-id="11790"></path><path d="M776.6016 771.6864h-53.0432c-5.7344 0-10.24-4.5056-10.24-10.24v-198.4512c0-20.2752 16.384-36.6592 36.6592-36.6592 20.2752 0 36.6592 16.384 36.6592 36.6592v198.4512c0.2048 5.5296-4.3008 10.24-10.0352 10.24z m-42.5984-20.48h32.5632v-188.2112c0-9.0112-7.3728-16.1792-16.1792-16.1792s-16.1792 7.3728-16.1792 16.1792v188.2112z" fill="#1C1D21" p-id="11791"></path><path d="M755.9168 769.4336H267.8784c-11.264 0-20.48-9.216-20.48-20.48v-272.384c0-11.264 9.216-20.48 20.48-20.48h488.2432c11.264 0 20.48 9.216 20.48 20.48v272.384c-0.2048 11.4688-9.216 20.48-20.6848 20.48z" fill="#FFECE9" p-id="11792"></path><path d="M755.9168 779.6736H267.8784c-16.9984 0-30.72-13.7216-30.72-30.72v-272.384c0-16.9984 13.7216-30.72 30.72-30.72h488.2432c16.9984 0 30.72 13.7216 30.72 30.72v272.384c-0.2048 16.9984-13.9264 30.72-30.9248 30.72z m-488.0384-313.344c-5.7344 0-10.24 4.5056-10.24 10.24v272.384c0 5.7344 4.5056 10.24 10.24 10.24h488.2432c5.7344 0 10.24-4.5056 10.24-10.24v-272.384c0-5.7344-4.5056-10.24-10.24-10.24H267.8784z" fill="#1C1D21" p-id="11793"></path><path d="M288.3584 546.816c-5.7344 0-10.24-4.5056-10.24-10.24v-7.3728c0-5.7344 4.5056-10.24 10.24-10.24s10.24 4.5056 10.24 10.24v7.3728c0 5.5296-4.7104 10.24-10.24 10.24zM288.3584 759.808c-5.7344 0-10.24-4.5056-10.24-10.24v-176.128c0-5.7344 4.5056-10.24 10.24-10.24s10.24 4.5056 10.24 10.24v176.128c0 5.5296-4.7104 10.24-10.24 10.24z" fill="#FFFFFF" p-id="11794"></path><path d="M628.5312 301.6704H395.264c-11.264 0-20.48-9.216-20.48-20.48V101.1712c0-11.264 9.216-20.48 20.48-20.48h233.2672c11.264 0 20.48 9.216 20.48 20.48v180.0192c0 11.4688-9.216 20.48-20.48 20.48z" fill="#FFECE9" p-id="11795"></path><path d="M628.5312 311.9104H395.264c-16.9984 0-30.72-13.7216-30.72-30.72V101.1712c0-16.9984 13.7216-30.72 30.72-30.72h233.2672c16.9984 0 30.72 13.7216 30.72 30.72v180.0192c0 16.9984-13.7216 30.72-30.72 30.72zM395.264 90.9312c-5.7344 0-10.24 4.5056-10.24 10.24v180.0192c0 5.7344 4.5056 10.24 10.24 10.24h233.2672c5.7344 0 10.24-4.5056 10.24-10.24V101.1712c0-5.7344-4.5056-10.24-10.24-10.24H395.264z" fill="#1C1D21" p-id="11796"></path><path d="M649.0112 124.3136V102.1952c0-11.8784-9.6256-21.504-21.504-21.504H396.4928c-11.8784 0-21.504 9.6256-21.504 21.504v21.9136h274.0224z" fill="#C67552" p-id="11797"></path><path d="M649.0112 134.5536H374.784c-5.7344 0-10.24-4.5056-10.24-10.24V102.1952c0-17.6128 14.336-31.744 31.744-31.744h231.0144c17.6128 0 31.744 14.336 31.744 31.744v21.9136c0.2048 5.7344-4.5056 10.4448-10.0352 10.4448zM385.024 114.0736h253.7472V102.4c0-6.144-5.12-11.264-11.264-11.264H396.4928c-6.144 0-11.264 5.12-11.264 11.264v11.6736z" fill="#1C1D21" p-id="11798"></path><path d="M512 1024c-136.8064 0-265.4208-53.248-362.0864-149.9136C53.248 777.4208 0 648.8064 0 512S53.248 246.5792 149.9136 149.9136C246.5792 53.248 375.1936 0 512 0s265.4208 53.248 362.0864 149.9136C970.752 246.5792 1024 375.1936 1024 512s-53.248 265.4208-149.9136 362.0864C777.4208 970.752 648.8064 1024 512 1024z m0-1003.52C241.0496 20.48 20.48 241.0496 20.48 512s220.5696 491.52 491.52 491.52 491.52-220.5696 491.52-491.52S782.9504 20.48 512 20.48z" fill="#1C1D21" p-id="11799"></path><path d="M755.9168 456.0896H267.8784c-2.6624 0-5.12 0.6144-7.5776 1.4336l235.7248 155.648c9.6256 6.3488 22.3232 6.3488 31.9488 0l235.7248-155.648c-2.4576-0.8192-4.9152-1.4336-7.7824-1.4336z" fill="#AAADAD" p-id="11800"></path><path d="M512 628.3264c-7.5776 0-15.1552-2.2528-21.7088-6.5536l-235.7248-155.648c-3.2768-2.048-4.9152-5.7344-4.5056-9.6256 0.4096-3.8912 2.8672-6.9632 6.3488-8.3968 3.6864-1.4336 7.3728-2.2528 11.264-2.2528h488.2432c3.8912 0 7.7824 0.8192 11.4688 2.2528 3.4816 1.4336 5.9392 4.7104 6.3488 8.3968 0.4096 3.8912-1.4336 7.5776-4.5056 9.6256l-235.7248 155.648c-6.3488 4.3008-13.9264 6.5536-21.504 6.5536z m-219.9552-161.9968l209.5104 138.4448c6.3488 4.096 14.336 4.096 20.6848 0l209.5104-138.4448H292.0448z" fill="#1C1D21" p-id="11801"></path><path d="M512 365.9776c-71.0656 0-128.8192 57.5488-128.8192 128.8192 0 18.2272 3.6864 35.4304 10.6496 50.9952l102.1952 67.584c9.6256 6.3488 22.3232 6.3488 31.9488 0l101.9904-67.3792c6.7584-15.7696 10.6496-32.9728 10.6496-51.2 0-71.2704-57.5488-128.8192-128.6144-128.8192z" fill="#D66112" p-id="11802"></path><path d="M512 365.9776c-71.0656 0-128.8192 57.5488-128.8192 128.8192 0 18.2272 3.6864 35.4304 10.6496 50.9952l52.6336 34.816c-1.6384-8.192-2.4576-16.5888-2.4576-25.1904 0-71.0656 57.5488-128.8192 128.8192-128.8192 19.8656 0 38.7072 4.5056 55.5008 12.4928-20.8896-43.2128-65.1264-73.1136-116.3264-73.1136z" fill="#FF8939" p-id="11803"></path><path d="M519.9872 482.9184h-15.9744c-0.8192 0-1.6384-0.6144-1.6384-1.6384v-18.6368c0-0.8192 0.6144-1.6384 1.6384-1.6384h29.2864c6.5536 0 11.8784-5.3248 11.8784-11.8784 0-6.5536-5.3248-11.8784-11.8784-11.8784h-10.0352v-20.2752c0-4.9152-3.8912-9.0112-9.0112-9.0112-4.9152 0-9.0112 3.8912-9.0112 9.0112v20.2752h-1.4336c-13.9264 0-25.1904 11.264-25.1904 25.1904v18.6368c0 13.9264 11.264 25.1904 25.1904 25.1904h15.9744c0.8192 0 1.6384 0.6144 1.6384 1.6384v18.6368c0 0.8192-0.6144 1.6384-1.6384 1.6384h-29.2864c-6.5536 0-11.8784 5.3248-11.8784 11.8784 0 6.5536 5.3248 11.8784 11.8784 11.8784h14.7456v20.2752c0 4.9152 3.8912 9.0112 9.0112 9.0112 4.9152 0 9.0112-3.8912 9.0112-9.0112v-20.48c12.288-1.6384 21.7088-12.0832 21.7088-24.7808V507.904c0-13.7216-11.264-24.9856-24.9856-24.9856z" fill="#FFF0CC" p-id="11804"></path><path d="M247.6032 719.6672v-156.672c0-14.5408-11.8784-26.4192-26.4192-26.4192-14.5408 0-26.4192 11.8784-26.4192 26.4192v156.672h52.8384z" fill="#FFC5B3" p-id="11805"></path><path d="M247.6032 729.9072H194.56c-5.7344 0-10.24-4.5056-10.24-10.24v-156.672c0-20.2752 16.384-36.6592 36.6592-36.6592 20.2752 0 36.6592 16.384 36.6592 36.6592v156.672c0.2048 5.7344-4.5056 10.24-10.0352 10.24z m-42.8032-20.48h32.5632v-146.432c0-9.0112-7.3728-16.1792-16.1792-16.1792s-16.1792 7.3728-16.1792 16.1792v146.432z" fill="#1C1D21" p-id="11806"></path><path d="M776.3968 719.6672v-156.672c0-14.5408 11.8784-26.4192 26.4192-26.4192 14.5408 0 26.4192 11.8784 26.4192 26.4192v156.672h-52.8384z" fill="#FFC5B3" p-id="11807"></path><path d="M829.44 729.9072h-53.0432c-5.7344 0-10.24-4.5056-10.24-10.24v-156.672c0-20.2752 16.384-36.6592 36.6592-36.6592 20.2752 0 36.6592 16.384 36.6592 36.6592v156.672c0.2048 5.7344-4.3008 10.24-10.0352 10.24z m-42.8032-20.48H819.2v-146.432c0-9.0112-7.3728-16.1792-16.1792-16.1792s-16.1792 7.3728-16.1792 16.1792v146.432zM512 628.3264c-7.5776 0-15.1552-2.2528-21.7088-6.5536l-102.1952-67.584c-1.6384-1.024-2.8672-2.6624-3.6864-4.5056-7.5776-17.408-11.4688-36.0448-11.4688-55.0912 0-31.9488 11.0592-63.0784 31.1296-87.6544 3.4816-4.3008 10.0352-5.12 14.336-1.4336 4.3008 3.4816 5.12 10.0352 1.4336 14.336-17.2032 21.0944-26.624 47.5136-26.624 74.752 0 15.36 2.8672 30.1056 8.6016 44.2368l99.7376 65.7408c6.3488 4.096 14.336 4.096 20.6848 0l99.328-65.7408c5.7344-14.1312 8.6016-29.0816 8.6016-44.4416 0-65.3312-53.248-118.5792-118.5792-118.5792-3.6864 0-7.5776 0.2048-11.264 0.6144-5.5296 0.6144-10.6496-3.6864-11.0592-9.216-0.6144-5.5296 3.6864-10.6496 9.216-11.0592 4.3008-0.4096 8.8064-0.6144 13.1072-0.6144 76.5952 0 139.0592 62.2592 139.0592 139.0592 0 19.2512-3.8912 37.6832-11.4688 55.296-0.8192 1.8432-2.048 3.2768-3.6864 4.5056l-101.9904 67.3792c-6.3488 4.3008-13.9264 6.5536-21.504 6.5536z" fill="#1C1D21" p-id="11808"></path><path d="M445.0304 394.8544c-3.4816 0-6.7584-1.8432-8.8064-4.9152-2.8672-4.9152-1.4336-11.0592 3.4816-14.1312 2.6624-1.6384 5.3248-3.072 7.9872-4.5056 4.9152-2.6624 11.264-0.6144 13.7216 4.3008 2.6624 4.9152 0.6144 11.264-4.3008 13.7216-2.2528 1.2288-4.5056 2.4576-6.7584 3.8912-1.6384 1.2288-3.4816 1.6384-5.3248 1.6384z" fill="#1C1D21" p-id="11809"></path><path d="M527.9744 607.8464c-9.6256-6.7584-22.3232-6.7584-31.9488 0l-228.5568 161.5872H756.9408l-228.9664-161.5872z" fill="#FFECE9" p-id="11810"></path><path d="M755.9168 779.6736H266.8544c-4.3008-0.2048-8.192-3.072-9.4208-7.168-1.2288-4.3008 0.2048-8.8064 3.8912-11.264l228.5568-161.5872c13.312-9.4208 30.5152-9.4208 43.8272 0l228.7616 161.5872c3.6864 2.4576 5.12 7.168 3.8912 11.264-1.2288 4.3008-5.12 7.168-9.4208 7.3728-0.2048-0.2048-0.6144-0.2048-1.024-0.2048z m-456.4992-20.48h424.96l-202.3424-142.9504c-6.144-4.3008-14.1312-4.3008-20.2752 0l-202.3424 142.9504z" fill="#1C1D21" p-id="11811"></path><path d="M405.9136 1002.496l-0.4096-120.4224c0-23.7568-10.8544-46.08-29.4912-60.6208l-151.9616-120.2176c-18.6368-14.7456-29.4912-37.2736-29.4912-61.0304v-77.2096c0-14.5408-11.8784-26.4192-26.4192-26.4192-14.5408 0-26.4192 11.8784-26.4192 26.4192v148.0704c0 20.6848 8.192 40.3456 22.7328 54.8864l107.1104 107.1104c14.5408 14.5408 22.7328 34.4064 22.7328 54.8864v36.0448c35.0208 17.2032 72.4992 30.1056 111.616 38.5024z" fill="#FFC5B3" p-id="11812"></path><path d="M405.9136 1012.736c-0.8192 0-1.4336 0-2.2528-0.2048-39.5264-8.3968-77.824-21.7088-113.8688-39.1168-3.4816-1.6384-5.7344-5.3248-5.7344-9.216v-36.0448c0-18.0224-6.9632-35.0208-19.8656-47.7184l-107.1104-107.1104c-16.5888-16.5888-25.8048-38.7072-25.8048-62.2592v-148.0704c0-20.2752 16.384-36.6592 36.6592-36.6592s36.6592 16.384 36.6592 36.6592v77.2096c0 20.6848 9.4208 40.1408 25.6 52.8384l151.9616 120.2176c21.0944 16.7936 33.3824 41.7792 33.3824 68.608l0.4096 120.4224c0 3.072-1.4336 5.9392-3.8912 7.9872-1.4336 1.6384-3.8912 2.4576-6.144 2.4576z m-101.376-55.0912c29.0816 13.5168 59.8016 24.3712 91.136 31.9488l-0.4096-107.52c0-20.6848-9.4208-39.936-25.6-52.6336l-151.9616-120.2176C196.4032 692.4288 184.32 667.2384 184.32 640.2048v-77.2096c0-9.0112-7.3728-16.1792-16.1792-16.1792s-16.1792 7.3728-16.1792 16.1792v148.0704c0 18.0224 6.9632 35.0208 19.8656 47.7184l107.1104 107.1104c16.5888 16.5888 25.8048 38.7072 25.8048 62.2592v29.4912z" fill="#1C1D21" p-id="11813"></path><path d="M882.4832 562.9952c0-14.5408-11.8784-26.4192-26.4192-26.4192-14.5408 0-26.4192 11.8784-26.4192 26.4192v77.2096c0 23.7568-10.8544 46.2848-29.4912 61.0304L647.9872 821.248c-18.6368 14.7456-29.4912 37.0688-29.4912 60.6208l-0.4096 120.4224c39.1168-8.3968 76.5952-21.2992 111.616-38.2976v-36.0448c0-20.6848 8.192-40.3456 22.7328-54.8864l107.1104-107.1104c14.5408-14.5408 22.7328-34.4064 22.7328-54.8864v-148.0704z" fill="#FFC5B3" p-id="11814"></path><path d="M618.0864 1012.736c-2.2528 0-4.5056-0.8192-6.3488-2.2528-2.4576-2.048-3.8912-4.9152-3.8912-7.9872l0.4096-120.4224c0-27.0336 12.288-52.0192 33.3824-68.608l151.9616-120.2176c16.1792-12.9024 25.6-32.1536 25.6-52.8384V563.2c0-20.2752 16.384-36.6592 36.6592-36.6592 20.2752 0 36.6592 16.384 36.6592 36.6592v148.0704c0 23.552-9.216 45.6704-25.8048 62.2592L759.808 880.2304c-12.6976 12.6976-19.8656 29.696-19.8656 47.7184v36.0448c0 3.8912-2.2528 7.5776-5.7344 9.216-36.2496 17.408-74.5472 30.5152-113.8688 39.1168-0.8192 0.4096-1.6384 0.4096-2.2528 0.4096zM855.8592 546.816c-9.0112 0-16.1792 7.3728-16.1792 16.1792v77.2096c0 27.0336-12.0832 52.224-33.3824 69.0176L654.336 829.44c-16.1792 12.9024-25.6 31.9488-25.6 52.6336l-0.4096 107.52c31.3344-7.5776 62.0544-18.2272 91.136-31.9488v-29.696c0-23.552 9.216-45.6704 25.8048-62.2592l107.1104-107.1104c12.6976-12.6976 19.8656-29.696 19.8656-47.7184v-148.0704c0-8.8064-7.3728-15.9744-16.384-15.9744z m-126.1568 417.3824zM470.6304 185.5488h-5.12c-5.7344 0-10.24-4.5056-10.24-10.24s4.5056-10.24 10.24-10.24h5.12c5.7344 0 10.24 4.5056 10.24 10.24s-4.7104 10.24-10.24 10.24zM514.4576 185.5488h-5.12c-5.7344 0-10.24-4.5056-10.24-10.24s4.5056-10.24 10.24-10.24h5.12c5.7344 0 10.24 4.5056 10.24 10.24s-4.7104 10.24-10.24 10.24zM558.2848 185.5488h-5.12c-5.7344 0-10.24-4.5056-10.24-10.24s4.5056-10.24 10.24-10.24h5.12c5.7344 0 10.24 4.5056 10.24 10.24s-4.5056 10.24-10.24 10.24zM602.112 185.5488h-5.12c-5.7344 0-10.24-4.5056-10.24-10.24s4.5056-10.24 10.24-10.24h5.12c5.7344 0 10.24 4.5056 10.24 10.24s-4.5056 10.24-10.24 10.24z" fill="#1C1D21" p-id="11815"></path><path d="M426.8032 223.6416h-5.12c-5.7344 0-10.24-4.5056-10.24-10.24s4.5056-10.24 10.24-10.24h5.12c5.7344 0 10.24 4.5056 10.24 10.24s-4.7104 10.24-10.24 10.24z" fill="#FF3E63" p-id="11816"></path><path d="M470.6304 223.6416h-5.12c-5.7344 0-10.24-4.5056-10.24-10.24s4.5056-10.24 10.24-10.24h5.12c5.7344 0 10.24 4.5056 10.24 10.24s-4.7104 10.24-10.24 10.24zM514.4576 223.6416h-5.12c-5.7344 0-10.24-4.5056-10.24-10.24s4.5056-10.24 10.24-10.24h5.12c5.7344 0 10.24 4.5056 10.24 10.24s-4.7104 10.24-10.24 10.24zM558.2848 223.6416h-5.12c-5.7344 0-10.24-4.5056-10.24-10.24s4.5056-10.24 10.24-10.24h5.12c5.7344 0 10.24 4.5056 10.24 10.24s-4.5056 10.24-10.24 10.24zM602.112 223.6416h-5.12c-5.7344 0-10.24-4.5056-10.24-10.24s4.5056-10.24 10.24-10.24h5.12c5.7344 0 10.24 4.5056 10.24 10.24s-4.5056 10.24-10.24 10.24z" fill="#1C1D21" p-id="11817"></path><path d="M426.8032 261.7344h-5.12c-5.7344 0-10.24-4.5056-10.24-10.24s4.5056-10.24 10.24-10.24h5.12c5.7344 0 10.24 4.5056 10.24 10.24s-4.7104 10.24-10.24 10.24z" fill="#FF3E63" p-id="11818"></path><path d="M470.6304 261.7344h-5.12c-5.7344 0-10.24-4.5056-10.24-10.24s4.5056-10.24 10.24-10.24h5.12c5.7344 0 10.24 4.5056 10.24 10.24s-4.7104 10.24-10.24 10.24zM514.4576 261.7344h-5.12c-5.7344 0-10.24-4.5056-10.24-10.24s4.5056-10.24 10.24-10.24h5.12c5.7344 0 10.24 4.5056 10.24 10.24s-4.7104 10.24-10.24 10.24zM558.2848 261.7344h-5.12c-5.7344 0-10.24-4.5056-10.24-10.24s4.5056-10.24 10.24-10.24h5.12c5.7344 0 10.24 4.5056 10.24 10.24s-4.5056 10.24-10.24 10.24zM602.112 261.7344h-5.12c-5.7344 0-10.24-4.5056-10.24-10.24s4.5056-10.24 10.24-10.24h5.12c5.7344 0 10.24 4.5056 10.24 10.24s-4.5056 10.24-10.24 10.24z" fill="#1C1D21" p-id="11819"></path><path d="M476.16 124.3136h-36.4544V74.9568c0-10.0352 8.192-18.2272 18.2272-18.2272s18.2272 8.192 18.2272 18.2272v49.3568z" fill="#AAADAD" p-id="11820"></path><path d="M476.16 134.5536h-36.4544c-5.7344 0-10.24-4.5056-10.24-10.24V74.9568c0-15.7696 12.6976-28.4672 28.4672-28.4672s28.4672 12.6976 28.4672 28.4672v49.3568c0 5.5296-4.7104 10.24-10.24 10.24z m-26.2144-20.48h15.9744V74.9568c0-4.5056-3.6864-7.9872-7.9872-7.9872s-7.9872 3.6864-7.9872 7.9872v39.1168z" fill="#1C1D21" p-id="11821"></path><path d="M584.0896 124.3136h-36.4544V74.9568c0-10.0352 8.192-18.2272 18.2272-18.2272s18.2272 8.192 18.2272 18.2272v49.3568z" fill="#AAADAD" p-id="11822"></path><path d="M584.0896 134.5536h-36.4544c-5.7344 0-10.24-4.5056-10.24-10.24V74.9568c0-15.7696 12.6976-28.4672 28.4672-28.4672s28.4672 12.6976 28.4672 28.4672v49.3568c0 5.5296-4.5056 10.24-10.24 10.24z m-26.2144-20.48h15.9744V74.9568c0-4.5056-3.6864-7.9872-7.9872-7.9872s-7.9872 3.6864-7.9872 7.9872v39.1168z" fill="#1C1D21" p-id="11823"></path></svg>