<?xml version="1.0" standalone="no"?><!DOCTYPE svg PUBLIC "-//W3C//DTD SVG 1.1//EN" "http://www.w3.org/Graphics/SVG/1.1/DTD/svg11.dtd"><svg t="1599792610125" class="icon" viewBox="0 0 1024 1024" version="1.1" xmlns="http://www.w3.org/2000/svg" p-id="2363" xmlns:xlink="http://www.w3.org/1999/xlink" width="200" height="200"><defs><style type="text/css"></style></defs><path d="M269.576258 352.520258C354.553141 352.520258 423.440516 277.036969 423.440516 183.923613 423.440516 90.810257 354.553141 15.326968 269.576258 15.326968 184.599375 15.326968 115.712 90.810257 115.712 183.923613 115.712 277.036969 184.599375 352.520258 269.576258 352.520258ZM760.435613 352.520258C845.394254 352.520258 914.266839 277.036969 914.266839 183.923613 914.266839 90.810257 845.394254 15.326968 760.435613 15.326968 675.476972 15.326968 606.604387 90.810257 606.604387 183.923613 606.604387 277.036969 675.476972 352.520258 760.435613 352.520258ZM846.715871 757.561806C846.715871 930.353548 698.169806 1018.846968 515.105032 1018.846968 331.875097 1018.846968 183.362065 930.353548 183.362065 757.561806 183.362065 619.156645 331.875097 472.130065 515.105032 472.130065 698.169806 472.130065 846.715871 615.093677 846.715871 757.561806Z" p-id="2364"></path></svg>