<?xml version="1.0" standalone="no"?><!DOCTYPE svg PUBLIC "-//W3C//DTD SVG 1.1//EN"
        "http://www.w3.org/Graphics/SVG/1.1/DTD/svg11.dtd">
<svg t="1597741278442" class="icon" viewBox="0 0 1024 1024" version="1.1" xmlns="http://www.w3.org/2000/svg" p-id="2685"
     xmlns:xlink="http://www.w3.org/1999/xlink" width="200" height="200">
    <defs>
        <style type="text/css"></style>
    </defs>
    <path d="M547.84 257.024c0-18.432-14.848-33.28-33.28-33.28S481.28 238.592 481.28 257.024v78.336h66.56V257.024zM481.28 766.976c0 18.432 14.848 33.28 33.28 33.28s33.28-14.848 33.28-33.28v-79.36H481.28v79.36z"
           p-id="2686"></path>
    <path d="M574.464 478.72H457.728c-20.992 0-38.4-16.896-38.4-38.4s16.896-38.4 38.4-38.4h174.08c18.432 0 33.28-14.848 33.28-33.28s-14.848-33.28-33.28-33.28H458.24C399.872 335.36 353.28 382.464 353.28 440.32s47.104 104.96 104.96 104.96H571.392c20.992 0 38.4 16.896 38.4 38.4s-16.896 38.4-38.4 38.4h-174.08c-18.432 0-33.28 14.848-33.28 33.28s14.848 33.28 33.28 33.28h173.568c57.856 0 104.96-47.104 104.96-104.96 0-57.344-45.568-103.424-101.376-104.96z"
           p-id="2687"></path>
    <path d="M819.2 74.752H209.92c-48.128 0-87.04 38.912-87.04 87.04v700.416c0 48.128 38.912 87.04 87.04 87.04h609.28c48.128 0 87.04-38.912 87.04-87.04V161.28c0-47.616-38.912-86.528-87.04-86.528z m20.48 786.944c0 11.264-9.216 20.48-20.48 20.48H209.92c-11.264 0-20.48-9.216-20.48-20.48V161.28c0-11.264 9.216-20.48 20.48-20.48h609.28c11.264 0 20.48 9.216 20.48 20.48v700.416z"
           p-id="2688"></path>
</svg>