<?xml version="1.0" standalone="no"?><!DOCTYPE svg PUBLIC "-//W3C//DTD SVG 1.1//EN" "http://www.w3.org/Graphics/SVG/1.1/DTD/svg11.dtd"><svg t="1600417644681" class="icon" viewBox="0 0 1024 1024" version="1.1" xmlns="http://www.w3.org/2000/svg" p-id="11369" xmlns:xlink="http://www.w3.org/1999/xlink" width="200" height="200"><defs><style type="text/css"></style></defs><path d="M512 814.459259c-13.274074 0-26.548148-4.740741-37.925926-14.222222-91.022222-84.385185-187.733333-181.096296-189.62963-254.103704-0.948148-34.133333 11.377778-66.37037 34.133334-91.022222 25.6-26.548148 61.62963-41.718519 97.659259-41.718518 36.02963 0 71.111111 15.17037 94.814815 40.77037 24.651852-25.6 58.785185-40.77037 95.762963-40.77037 73.007407 0 131.792593 59.733333 131.792592 131.792592 0 67.318519-91.022222 162.133333-189.629629 254.103704-9.481481 10.42963-23.703704 15.17037-36.977778 15.17037zM416.237037 470.281481c-20.859259 0-41.718519 8.533333-56.888889 23.703704-12.325926 13.274074-18.962963 31.288889-18.962963 49.303704 1.896296 54.992593 125.155556 170.666667 171.614815 214.281481 112.82963-106.192593 170.666667-177.303704 170.666667-212.385185 0-41.718519-34.133333-74.903704-74.903704-74.903704-26.548148 0-51.2 14.222222-65.422222 37.925926-17.066667 29.392593-47.407407 27.496296-61.62963-1.896296-12.325926-21.807407-36.977778-36.02963-64.474074-36.02963z" fill="#0097FF" p-id="11370"></path><path d="M864.711111 931.081481c0 16.118519-13.274074 29.392593-29.392592 29.392593H188.681481c-16.118519 0-29.392593-13.274074-29.392592-29.392593V536.651852c0-16.118519 13.274074-29.392593 29.392592-29.392593 16.118519 0 29.392593 13.274074 29.392593 29.392593V872.296296c0 16.118519 13.274074 29.392593 29.392593 29.392593H777.481481c16.118519 0 29.392593-13.274074 29.392593-29.392593V536.651852c0-16.118519 13.274074-29.392593 29.392593-29.392593 16.118519 0 29.392593 13.274074 29.392592 29.392593v394.429629z m0 29.392593M958.577778 447.525926l-94.814815-91.97037V167.822222c0-16.118519-13.274074-28.444444-28.444444-28.444444H734.814815c-16.118519 0-28.444444 13.274074-28.444445 28.444444v53.096297L531.911111 71.111111c-11.377778-9.481481-27.496296-9.481481-37.925926 0L66.37037 447.525926c-12.325926 10.42963-13.274074 29.392593-2.844444 40.77037 10.42963 12.325926 29.392593 13.274074 41.718518 2.844445l388.740741-343.22963c11.377778-9.481481 27.496296-9.481481 37.925926 0l231.348148 197.214815 40.770371 36.02963 112.829629 108.088888c11.377778 11.377778 30.340741 11.377778 41.718519-0.948148 11.377778-10.42963 11.377778-29.392593 0-40.77037z m-194.370371-180.148148v-48.355556c0-11.377778 9.481481-20.859259 20.85926-20.859259 11.377778 0 20.859259 9.481481 20.859259 20.859259v85.333334l-41.718519-36.977778z" fill="#0097FF" p-id="11371"></path></svg>