<?xml version="1.0" standalone="no"?><!DOCTYPE svg PUBLIC "-//W3C//DTD SVG 1.1//EN" "http://www.w3.org/Graphics/SVG/1.1/DTD/svg11.dtd"><svg t="1600417578055" class="icon" viewBox="0 0 1024 1024" version="1.1" xmlns="http://www.w3.org/2000/svg" p-id="10584" xmlns:xlink="http://www.w3.org/1999/xlink" width="200" height="200"><defs><style type="text/css"></style></defs><path d="M945 943.5H79.7V426c0-24.9 20.2-45 45-45H900c24.9 0 45 20.2 45 45v517.5z" fill="#54D3CC" p-id="10585"></path><path d="M960 958.5H64.7V426c0-33.1 26.9-60 60-60H900c33.1 0 60 26.9 60 60v532.5z m-865.3-30H930V426c0-16.5-13.5-30-30-30H124.7c-16.5 0-30 13.5-30 30v502.5z" fill="#2A4964" p-id="10586"></path><path d="M814.8 380.4H210.5V278.6c0-6.6 5.4-12 12-12h580.3c6.6 0 12 5.4 12 12v101.8z" fill="#54D3CC" p-id="10587"></path><path d="M829.8 395.4H195.5V278.6c0-14.9 12.1-27 27-27h580.3c14.9 0 27 12.1 27 27v116.8z m-604.3-30h574.3v-83.8H225.5v83.8z" fill="#2A4964" p-id="10588"></path><path d="M729.3 267h-432v-75.7c0-6.6 5.4-12 12-12h408c6.6 0 12 5.4 12 12V267z" fill="#54D3CC" p-id="10589"></path><path d="M744.3 282h-462v-90.7c0-14.9 12.1-27 27-27h408c14.9 0 27 12.1 27 27V282z m-432-30h402v-57.7h-402V252z" fill="#2A4964" p-id="10590"></path><path d="M523.3 184.9m-106 0a106 106 0 1 0 212 0 106 106 0 1 0-212 0Z" fill="#FFFFFF" p-id="10591"></path><path d="M523.3 305.9c-66.7 0-121-54.3-121-121s54.3-121 121-121 121 54.3 121 121-54.2 121-121 121z m0-212c-50.2 0-91 40.8-91 91s40.8 91 91 91 91-40.8 91-91-40.8-91-91-91z" fill="#294966" p-id="10592"></path><path d="M357.3 712.7h128v229h-128z" fill="#DDF0F0" p-id="10593"></path><path d="M500.3 956.7h-158v-259h158v259z m-128-30h98v-199h-98v199z" fill="#294966" p-id="10594"></path><path d="M486.6 712.7h128v229h-128z" fill="#DDF0F0" p-id="10595"></path><path d="M629.6 956.7h-158v-259h158v259z m-128-30h98v-199h-98v199z" fill="#294966" p-id="10596"></path><path d="M160.3 449.1h188v78.6h-188z" fill="#DDF0F0" p-id="10597"></path><path d="M363.3 542.7h-218V434.1h218v108.6z m-188-30h158v-48.6h-158v48.6z" fill="#294966" p-id="10598"></path><path d="M419.3 449.1h188v78.6h-188z" fill="#DDF0F0" p-id="10599"></path><path d="M622.3 542.7h-218V434.1h218v108.6z m-188-30h158v-48.6h-158v48.6z" fill="#294966" p-id="10600"></path><path d="M677.5 449.1h188v78.6h-188z" fill="#DDF0F0" p-id="10601"></path><path d="M880.5 542.7h-218V434.1h218v108.6z m-188-30h158v-48.6h-158v48.6z" fill="#294966" p-id="10602"></path><path d="M160.3 578.5h188v78.6h-188z" fill="#DDF0F0" p-id="10603"></path><path d="M363.3 672h-218V563.5h218V672z m-188-30h158v-48.6h-158V642z" fill="#294966" p-id="10604"></path><path d="M421.2 578.5h188v78.6h-188z" fill="#DDF0F0" p-id="10605"></path><path d="M624.2 672h-218V563.5h218V672z m-188-30h158v-48.6h-158V642z" fill="#294966" p-id="10606"></path><path d="M677.5 578.5h188v78.6h-188z" fill="#DDF0F0" p-id="10607"></path><path d="M880.5 672h-218V563.5h218V672z m-188-30h158v-48.6h-158V642z" fill="#294966" p-id="10608"></path><path d="M527.6 262.5h-4.9c-6.6 0-12-5.4-12-12V118.4c0-6.6 5.4-12 12-12h4.9c6.6 0 12 5.4 12 12v132.1c0 6.6-5.4 12-12 12z" fill="#F25168" p-id="10609"></path><path d="M447.1 186.9V182c0-6.6 5.4-12 12-12h132.1c6.6 0 12 5.4 12 12v4.9c0 6.6-5.4 12-12 12H459.1c-6.6 0-12-5.4-12-12z" fill="#F25168" p-id="10610"></path><path d="M444.4 783.3l-54.1 87" fill="#F25168" p-id="10611"></path><path d="M428.9 774.3c-15.8 25.4-31.6 50.8-47.4 76.1-2.3 3.6-4.5 7.2-6.8 10.8-5 8-2 20.2 6.5 24.6 8.8 4.7 19.3 2.1 24.6-6.5 15.8-25.4 31.6-50.8 47.4-76.1 2.3-3.6 4.5-7.2 6.8-10.8 5-8 2-20.2-6.5-24.6-8.8-4.7-19.3-2.1-24.6 6.5z" fill="#FFFFFF" p-id="10612"></path><path d="M577.6 783.3l-54.1 87" fill="#F25168" p-id="10613"></path><path d="M562.1 774.3c-15.8 25.4-31.6 50.8-47.4 76.1-2.3 3.6-4.5 7.2-6.8 10.8-5 8-2 20.2 6.5 24.6 8.8 4.7 19.3 2.1 24.6-6.5 15.8-25.4 31.6-50.8 47.4-76.1 2.3-3.6 4.5-7.2 6.8-10.8 5-8 2-20.2-6.5-24.6-8.8-4.7-19.3-2.1-24.6 6.5z" fill="#FFFFFF" p-id="10614"></path></svg>